<?xml version="1.0" standalone="no"?>
<!DOCTYPE svg PUBLIC "-//W3C//DTD SVG 20010904//EN"
 "http://www.w3.org/TR/2001/REC-SVG-20010904/DTD/svg10.dtd">
<svg version="1.0" xmlns="http://www.w3.org/2000/svg"
 width="460.000000pt" height="460.000000pt" viewBox="0 0 460.000000 460.000000"
 preserveAspectRatio="xMidYMid meet">
<metadata>
Created by potrace 1.11, written by Peter Selinger 2001-2013
</metadata>
<g transform="translate(0.000000,460.000000) scale(0.100000,-0.100000)"
fill="#000000" stroke="none">
<path d="M3603 4303 c-7 -2 -9 -11 -6 -20 4 -9 2 -14 -3 -11 -9 6 -34 -15 -35
-29 -1 -5 -5 -7 -10 -5 -5 1 -8 -4 -6 -10 1 -7 -4 -12 -11 -10 -8 1 -11 -1 -8
-6 3 -5 -9 -25 -27 -44 -18 -19 -43 -50 -57 -69 -14 -18 -33 -41 -42 -51 -10
-10 -18 -26 -18 -35 0 -15 -2 -16 -10 -3 -8 12 -10 10 -10 -8 0 -13 -3 -21 -7
-19 -5 3 -14 -1 -21 -9 -7 -8 -10 -14 -6 -14 3 0 -8 -13 -26 -30 -17 -16 -29
-34 -25 -40 3 -5 -1 -10 -9 -10 -9 0 -16 -6 -16 -14 0 -8 -14 -24 -30 -36 -17
-12 -28 -26 -25 -31 4 -5 -2 -9 -11 -9 -10 0 -15 -3 -11 -6 8 -9 -16 -33 -27
-26 -5 3 -6 0 -2 -6 3 -6 -4 -22 -16 -35 -42 -45 -68 -79 -68 -88 0 -6 -4 -7
-10 -4 -9 6 -14 -7 -11 -27 0 -4 -6 -5 -14 -2 -11 5 -13 2 -9 -10 5 -12 0 -19
-15 -23 -11 -3 -18 -9 -15 -14 3 -5 0 -9 -6 -9 -6 0 -8 -4 -5 -10 3 -5 0 -10
-8 -10 -8 0 -19 -10 -25 -22 -7 -15 -11 -17 -11 -8 -1 13 -2 13 -11 0 -8 -13
-10 -12 -10 3 0 10 -4 15 -10 12 -5 -3 -10 -1 -10 5 0 6 -4 9 -9 6 -5 -3 -14
1 -21 9 -7 8 -26 15 -42 15 -20 0 -27 4 -22 12 5 8 2 9 -9 5 -10 -3 -17 -2
-17 4 0 6 -4 8 -9 4 -5 -3 -17 2 -25 11 -12 11 -16 12 -16 2 -1 -9 -4 -8 -10
3 -6 11 -18 15 -35 11 -16 -3 -25 0 -25 9 0 7 -3 9 -6 6 -4 -3 -15 -2 -25 4
-14 7 -19 6 -19 -3 0 -6 -7 -3 -16 8 -8 10 -13 13 -9 7 4 -8 0 -13 -9 -13 -9
0 -16 4 -16 9 0 6 -19 9 -41 9 -23 0 -45 5 -49 12 -6 9 -9 9 -13 -1 -4 -12 -7
-11 -16 1 -8 12 -11 12 -11 1 0 -11 -3 -11 -17 0 -9 8 -14 9 -10 3 3 -6 0 -11
-8 -11 -8 0 -12 4 -9 9 3 4 1 8 -5 8 -5 0 -13 -5 -16 -10 -5 -8 -12 -7 -22 1
-11 10 -19 10 -33 1 -10 -6 -21 -8 -25 -4 -9 10 -66 11 -60 2 3 -5 -3 -7 -12
-5 -10 2 -18 4 -18 5 0 7 -36 6 -41 -1 -3 -5 -23 -9 -44 -9 -21 0 -41 -6 -43
-12 -4 -10 -6 -10 -6 0 -1 6 -6 12 -12 12 -5 0 -7 -6 -3 -12 6 -10 4 -10 -8 0
-10 8 -17 9 -20 3 -1 -6 -18 -11 -35 -13 -18 -1 -33 -5 -33 -8 0 -6 -17 -10
-52 -11 -10 0 -18 -5 -18 -10 0 -6 -4 -7 -10 -4 -5 3 -10 1 -10 -6 0 -7 -3 -9
-7 -6 -3 4 -17 0 -31 -9 -13 -9 -21 -11 -18 -5 5 8 0 8 -18 0 -14 -7 -23 -16
-20 -20 2 -4 -5 -6 -16 -4 -12 2 -23 -2 -27 -10 -3 -8 -9 -12 -14 -9 -5 3 -12
-2 -15 -11 -6 -14 -10 -13 -32 7 -15 13 -20 15 -13 5 8 -9 12 -20 9 -23 -3 -2
-12 9 -20 26 -8 17 -19 32 -24 33 -5 1 -7 8 -6 16 2 7 -1 10 -7 6 -6 -3 -11 1
-11 9 0 8 -5 18 -12 22 -7 5 -8 3 -3 -6 5 -9 4 -11 -3 -6 -7 4 -12 14 -12 23
0 8 -15 29 -32 45 -18 17 -32 37 -30 45 2 7 -3 12 -10 11 -7 -2 -12 5 -11 15
0 12 -4 16 -13 13 -9 -4 -14 2 -14 17 0 18 -2 19 -10 7 -9 -13 -10 -13 -10 1
0 8 -16 32 -35 53 -19 21 -35 43 -35 48 0 5 -5 6 -12 2 -6 -4 -8 -3 -5 3 8 13
-27 55 -37 45 -4 -4 -7 -2 -6 3 5 22 -1 35 -15 35 -14 0 -19 12 -16 33 0 4 -6
7 -16 7 -9 0 -14 3 -10 6 5 6 -10 28 -45 66 -10 10 -18 23 -18 29 0 5 -4 8 -8
5 -5 -3 -15 7 -23 22 -18 35 -34 52 -51 52 -10 0 -9 3 2 10 13 8 13 10 -2 10
-9 0 -20 5 -24 12 -5 7 -3 8 7 3 12 -8 12 -6 0 8 -7 9 -17 15 -21 12 -4 -3 -7
3 -6 13 0 9 -5 16 -11 14 -7 -1 -13 5 -13 13 0 8 -5 15 -11 15 -5 0 -8 4 -5 9
4 5 -3 7 -14 4 -22 -6 -26 -18 -10 -28 6 -3 10 -14 10 -23 0 -15 -2 -15 -10
-2 -6 9 -10 10 -10 3 0 -6 5 -15 10 -18 6 -3 10 -11 10 -16 0 -6 -4 -8 -8 -5
-4 2 -9 -5 -9 -17 -2 -17 0 -19 7 -7 5 8 10 10 10 5 0 -6 -5 -16 -12 -23 -9
-9 -9 -12 0 -12 7 0 12 -10 12 -22 0 -19 -2 -20 -10 -8 -6 9 -10 10 -10 3 0
-6 5 -15 10 -18 6 -3 10 -11 10 -16 0 -6 -4 -8 -8 -5 -4 2 -8 -4 -9 -14 -1
-11 3 -22 8 -26 6 -4 6 -11 -2 -20 -8 -10 -8 -14 0 -14 6 0 11 -5 11 -11 0 -5
-6 -7 -12 -3 -10 6 -10 4 0 -7 6 -7 12 -17 12 -22 0 -4 -6 -5 -12 -1 -10 6
-10 4 0 -7 13 -14 17 -33 4 -25 -4 2 -8 -4 -8 -14 0 -10 3 -17 6 -15 4 2 7 -9
7 -25 0 -16 -3 -27 -7 -25 -3 2 -6 -5 -6 -15 0 -10 3 -17 6 -15 4 2 7 -9 7
-25 0 -16 -3 -27 -7 -25 -3 2 -6 -5 -6 -15 0 -10 3 -17 6 -15 4 2 7 -9 7 -25
0 -16 -3 -27 -7 -25 -3 2 -6 -5 -6 -15 0 -10 4 -16 8 -14 12 8 10 -10 -3 -23
-8 -8 -8 -13 0 -17 6 -4 11 -12 11 -17 0 -6 -4 -8 -8 -5 -4 2 -8 -4 -9 -14 -1
-11 3 -22 8 -26 6 -4 6 -11 -2 -20 -8 -10 -8 -14 0 -14 6 0 11 -5 11 -11 0 -5
-6 -7 -12 -3 -10 6 -10 4 -1 -7 14 -14 18 -33 5 -25 -4 2 -8 -4 -9 -14 -1 -11
2 -22 8 -25 5 -4 9 -11 9 -16 0 -6 -4 -8 -8 -5 -4 2 -8 -4 -9 -14 -1 -11 2
-22 8 -25 5 -4 9 -11 9 -16 0 -6 -4 -8 -8 -5 -4 2 -8 -4 -9 -14 -1 -11 3 -22
8 -26 6 -4 6 -11 -2 -20 -8 -10 -8 -14 0 -14 6 0 11 -5 11 -11 0 -5 -6 -7 -12
-3 -10 6 -10 5 -1 -7 10 -12 10 -18 1 -27 -9 -9 -9 -12 0 -12 7 0 12 -5 12
-11 0 -5 -6 -7 -13 -3 -9 6 -9 5 0 -7 10 -12 10 -18 1 -27 -9 -9 -9 -12 0 -12
7 0 12 -5 12 -11 0 -5 -6 -7 -12 -3 -10 6 -10 4 0 -7 14 -16 16 -33 2 -24 -5
3 -10 1 -10 -4 0 -6 5 -11 10 -11 6 0 10 -5 10 -11 0 -5 -6 -7 -12 -3 -10 6
-10 5 -1 -7 10 -12 10 -18 1 -27 -9 -9 -9 -12 1 -12 11 0 11 -3 0 -17 -8 -9
-9 -14 -3 -10 7 4 11 -5 11 -23 0 -16 -3 -27 -7 -25 -3 2 -6 -5 -6 -15 0 -10
4 -16 8 -14 4 3 8 -2 8 -11 0 -9 -4 -14 -8 -11 -4 2 -8 -4 -8 -15 0 -10 3 -19
6 -19 3 0 6 -9 7 -20 1 -12 -3 -18 -9 -14 -6 4 -6 -1 1 -14 13 -24 14 -35 3
-28 -4 2 -8 -4 -8 -14 0 -10 4 -16 8 -14 4 3 8 -2 8 -11 0 -9 -4 -14 -8 -11
-4 2 -8 -4 -8 -15 0 -10 3 -19 6 -19 3 0 6 -9 7 -20 1 -11 -2 -18 -7 -15 -10
6 -7 -21 3 -31 11 -11 8 -26 -3 -19 -5 3 -10 1 -10 -4 0 -6 5 -11 10 -11 6 0
10 -5 10 -11 0 -5 -6 -7 -13 -3 -9 6 -9 5 0 -7 10 -12 10 -18 1 -27 -9 -9 -9
-12 1 -12 11 0 11 -3 0 -17 -10 -11 -10 -14 -1 -9 15 9 16 -6 0 -22 -9 -9 -9
-12 0 -12 7 0 12 -5 12 -11 0 -5 -6 -7 -12 -3 -10 6 -10 5 -1 -7 10 -12 10
-18 1 -27 -9 -9 -9 -12 0 -12 7 0 12 -5 12 -11 0 -5 -6 -7 -12 -3 -10 6 -10 5
-1 -7 10 -12 10 -18 1 -27 -9 -9 -9 -12 0 -12 7 0 12 -5 12 -11 0 -5 -6 -7
-12 -3 -10 6 -10 5 -1 -7 10 -12 10 -18 1 -27 -9 -9 -9 -12 1 -12 11 0 11 -3
0 -17 -10 -11 -10 -14 -1 -9 15 9 16 -6 0 -22 -9 -9 -9 -12 0 -12 7 0 12 -5
12 -11 0 -5 -6 -7 -12 -3 -10 6 -10 5 -1 -7 10 -12 10 -18 1 -27 -9 -9 -9 -12
1 -12 7 0 9 -5 4 -12 -4 -7 -9 -22 -10 -33 -2 -15 -1 -17 6 -6 7 10 9 7 8 -12
-1 -14 -5 -23 -9 -20 -5 2 -8 0 -8 -6 0 -5 6 -12 13 -14 9 -4 8 -8 -3 -16 -12
-8 -12 -13 -2 -23 14 -14 16 -32 3 -24 -5 4 -8 -2 -6 -11 2 -10 4 -18 5 -18 1
0 4 -12 6 -28 2 -19 -1 -25 -9 -20 -9 5 -9 3 0 -8 7 -8 13 -43 14 -77 1 -42 6
-59 13 -55 6 4 5 -1 -3 -10 -11 -14 -11 -20 0 -34 12 -15 12 -16 -1 -8 -12 6
-13 5 -3 -5 10 -11 10 -17 0 -29 -10 -12 -9 -13 1 -7 9 5 13 3 11 -5 -5 -41 2
-80 14 -73 9 6 9 4 0 -7 -15 -15 -17 -33 -5 -25 5 3 8 -17 8 -44 -1 -28 2 -46
8 -43 5 4 7 -1 3 -10 -3 -10 -3 -17 2 -17 5 0 7 -13 6 -30 -1 -17 2 -27 7 -24
5 3 9 0 7 -7 -4 -31 2 -70 9 -65 5 3 9 -1 9 -9 0 -8 -5 -15 -11 -15 -6 0 -3
-5 7 -11 11 -7 16 -18 13 -35 -3 -13 -1 -22 4 -19 4 3 10 -2 14 -10 3 -8 1
-15 -5 -15 -5 0 -2 -11 7 -25 9 -14 12 -25 8 -25 -5 0 -2 -5 6 -10 13 -9 13
-10 0 -10 -12 -1 -12 -3 2 -11 10 -5 15 -16 12 -24 -4 -8 -1 -15 5 -15 6 0 11
-11 11 -24 0 -14 5 -28 10 -31 6 -3 10 -15 10 -26 0 -10 5 -19 11 -19 5 0 7
-4 4 -10 -3 -5 -2 -10 4 -10 6 0 8 -7 5 -15 -4 -8 -1 -15 5 -15 6 0 11 -9 11
-20 0 -11 4 -20 10 -20 5 0 9 -3 8 -8 -2 -9 13 -45 22 -52 3 -3 14 -24 24 -47
11 -24 23 -43 28 -43 5 0 7 -4 3 -9 -3 -5 2 -16 10 -24 8 -9 15 -24 15 -34 0
-15 2 -16 10 -3 8 13 10 12 10 -3 0 -11 9 -30 20 -44 11 -14 17 -30 13 -36 -3
-5 -2 -8 3 -5 11 6 45 -28 37 -36 -4 -3 1 -6 11 -6 9 0 15 -4 12 -9 -3 -4 3
-16 14 -26 11 -10 17 -22 14 -27 -3 -4 0 -7 7 -6 7 2 18 -8 26 -22 7 -14 13
-20 13 -15 1 6 5 0 10 -12 5 -13 17 -23 26 -23 10 0 15 -3 11 -6 -8 -8 18 -34
33 -34 6 0 9 -4 6 -9 -3 -5 6 -12 21 -16 21 -5 24 -8 12 -16 -11 -7 -9 -9 9
-9 13 0 22 -6 22 -16 0 -8 5 -12 10 -9 5 3 10 -1 10 -9 0 -9 6 -13 13 -10 8 3
20 -2 27 -11 7 -8 17 -15 23 -15 6 0 0 11 -12 24 -14 15 -20 30 -16 37 5 8 4
10 -3 5 -7 -4 -12 -2 -12 4 0 6 -5 8 -10 5 -6 -3 -10 3 -10 13 0 11 -7 23 -16
26 -8 3 -12 10 -9 16 3 5 1 10 -4 10 -6 0 -11 4 -11 10 0 5 -9 20 -20 32 -42
48 -48 57 -43 62 4 3 1 6 -5 6 -7 0 -11 3 -10 8 3 12 -24 62 -34 62 -4 0 -8 7
-8 15 0 8 -4 15 -10 15 -5 0 -10 6 -10 14 0 22 -26 66 -34 58 -5 -4 -7 0 -6 8
4 29 0 41 -12 34 -7 -4 -8 -3 -4 5 4 6 0 23 -9 37 -9 13 -13 30 -9 36 4 7 3 8
-4 4 -8 -5 -12 1 -12 18 0 14 -5 28 -10 31 -6 4 -8 11 -5 16 4 5 3 9 -2 9 -4
0 -9 14 -9 31 -1 17 -7 35 -14 39 -8 5 -9 10 -1 14 7 5 7 15 0 33 -5 14 -7 28
-4 31 3 3 -3 14 -12 25 -10 11 -13 17 -6 14 15 -9 14 32 -1 52 -8 11 -8 13 1
8 9 -6 11 2 9 28 -1 19 1 35 4 35 4 0 5 11 2 25 -2 15 0 25 7 25 7 0 9 11 6
28 -5 31 -6 31 68 32 21 1 37 6 37 13 0 7 4 6 10 -3 8 -13 13 -13 31 -2 11 8
18 9 14 3 -9 -15 8 -14 24 2 11 10 13 10 7 0 -9 -16 6 -17 22 -1 7 7 12 8 12
2 0 -6 7 -11 15 -11 8 0 12 4 9 9 -3 4 -1 8 5 8 5 0 13 -5 16 -10 4 -6 12 -7
18 -3 20 12 37 12 37 0 0 -9 2 -9 8 -1 4 7 39 11 90 10 46 -1 84 3 86 9 3 6 9
3 15 -5 8 -11 11 -11 11 -2 0 10 5 10 21 1 15 -8 19 -8 15 0 -5 7 1 11 14 11
14 0 19 -4 14 -12 -6 -10 -4 -10 7 -2 26 19 66 15 91 -11 12 -14 29 -25 36
-25 7 0 10 -4 7 -10 -3 -5 -1 -10 4 -10 6 0 13 0 16 0 3 0 21 -16 41 -35 20
-19 40 -35 45 -35 6 0 7 -5 4 -10 -4 -6 -3 -10 2 -9 19 3 34 -2 29 -10 -4 -5
5 -4 18 2 13 7 22 15 20 19 -3 5 2 8 11 8 22 0 66 35 57 45 -4 5 -2 5 5 2 6
-4 19 0 27 9 9 8 16 12 16 7 0 -4 5 0 11 9 5 10 19 18 30 18 11 0 17 5 14 10
-3 6 1 10 10 10 9 0 13 4 10 10 -3 6 1 7 9 4 9 -3 16 -1 16 5 0 6 15 9 36 7
19 -1 38 2 41 7 3 5 10 2 15 -7 7 -12 13 -14 21 -7 7 5 27 8 45 7 18 -1 35 1
38 5 3 5 11 6 19 3 8 -4 12 -11 8 -17 -4 -6 -1 -7 8 -2 17 11 50 12 67 1 6 -4
12 -3 12 2 0 6 7 13 16 16 8 3 13 2 10 -3 -3 -5 3 -11 14 -14 11 -3 18 -1 15
4 -6 9 61 3 78 -8 7 -4 8 0 3 12 -7 18 -6 18 13 1 14 -12 21 -14 26 -6 6 9 10
9 16 -1 7 -12 9 -12 9 0 0 8 6 11 18 6 33 -13 76 -14 84 -2 6 9 8 9 8 0 0 -7
6 -10 14 -7 15 6 27 -32 27 -81 0 -85 -4 -162 -9 -169 -11 -20 -10 -76 2 -69
7 5 7 2 -1 -8 -7 -8 -15 -34 -19 -57 -4 -23 -11 -45 -16 -48 -5 -3 -3 -13 4
-22 10 -12 10 -14 1 -8 -9 5 -13 -1 -13 -23 0 -16 -4 -33 -10 -36 -5 -3 -10
-17 -10 -31 0 -13 -6 -24 -12 -24 -9 0 -8 -4 2 -10 10 -6 11 -10 3 -10 -7 0
-13 -11 -13 -25 0 -14 -4 -25 -10 -25 -5 0 -10 -7 -10 -15 0 -8 -5 -15 -11
-15 -6 0 -9 -6 -6 -14 3 -8 3 -17 -1 -21 -7 -6 -8 -10 -11 -37 -1 -9 -4 -8
-11 2 -8 12 -10 9 -10 -11 0 -15 -7 -32 -15 -39 -8 -7 -12 -16 -9 -21 3 -5 0
-9 -5 -9 -6 0 -11 -7 -11 -16 0 -8 -4 -12 -10 -9 -5 3 -7 0 -4 -9 3 -8 -3 -19
-15 -26 -12 -6 -21 -18 -21 -26 0 -8 -5 -12 -10 -9 -6 4 -9 3 -8 -2 1 -4 -7
-23 -19 -41 -14 -23 -23 -29 -27 -20 -3 7 -3 2 0 -11 4 -16 3 -21 -5 -16 -12
7 -50 -31 -51 -50 0 -5 4 -4 9 3 4 8 11 13 15 12 4 -1 23 11 43 27 19 15 40
27 45 25 6 -2 8 4 5 13 -4 9 -1 15 7 15 8 0 17 7 20 16 3 8 10 12 16 9 5 -3
10 -1 10 5 0 6 6 18 14 26 11 11 16 11 19 1 3 -6 6 -1 6 11 1 15 9 26 21 29
11 3 17 9 15 14 -3 4 4 13 15 19 11 6 18 15 15 21 -4 5 -2 9 2 9 5 0 18 7 29
16 10 8 12 12 4 8 -13 -7 -13 -6 0 11 30 38 48 53 56 47 5 -4 2 2 -6 12 -8 11
-10 17 -5 14 6 -3 16 0 23 8 7 8 9 14 5 14 -4 0 -3 4 2 8 21 15 50 56 35 48
-9 -4 -8 -2 3 7 9 8 17 19 17 26 0 6 5 11 10 11 6 0 10 7 10 15 0 8 5 15 11
15 5 0 7 4 4 10 -3 5 2 10 12 11 16 0 16 1 -2 9 -16 7 -17 9 -3 9 10 1 19 13
23 31 4 18 11 27 18 23 6 -4 8 0 4 10 -3 9 0 20 8 24 14 8 15 10 15 46 0 18 2
19 10 7 8 -12 10 -9 10 13 0 15 4 27 9 27 6 0 8 9 6 20 -2 11 1 20 7 20 6 0 8
3 5 7 -4 3 1 12 11 20 10 9 11 11 2 7 -13 -7 -13 -5 -2 8 7 9 12 20 11 24 -4
22 2 35 13 28 7 -5 9 -2 5 8 -3 9 1 24 8 35 8 10 15 31 15 46 0 20 4 26 13 21
8 -5 8 -2 -2 9 -9 11 -10 17 -2 17 6 0 11 11 11 24 0 14 5 28 10 31 6 3 10 11
10 16 0 6 -4 7 -10 4 -6 -3 -7 1 -4 9 3 9 10 16 14 16 5 0 7 9 5 20 -2 11 1
20 6 20 6 0 7 5 4 10 -4 6 -1 18 7 27 9 12 9 15 1 9 -7 -4 -13 -2 -13 3 0 6 4
11 8 11 4 0 9 12 10 27 4 41 7 57 14 69 4 5 5 27 3 47 -1 20 1 35 5 32 5 -3 6
5 2 17 -3 12 -1 19 4 15 5 -3 10 3 10 13 0 10 -3 17 -6 15 -4 -2 -7 2 -7 10 0
8 4 12 8 10 4 -3 6 14 4 38 -2 24 2 45 9 50 8 5 8 9 -2 15 -16 11 -4 45 12 35
8 -5 8 -3 0 8 -7 8 -10 29 -8 47 3 25 1 31 -9 26 -9 -6 -9 -4 1 8 7 9 10 29 7
48 -4 24 -2 30 7 24 10 -6 11 -4 1 7 -16 16 -17 33 -1 23 7 -5 8 -3 3 6 -12
20 -16 92 -5 85 15 -9 12 2 -6 19 -8 9 -11 16 -5 16 7 0 9 10 5 26 -5 20 -4
25 6 19 9 -6 9 -3 0 15 -10 18 -9 24 1 31 11 7 9 9 -6 10 -11 0 -14 3 -7 6 6
2 12 15 12 27 0 12 -6 28 -12 35 -11 10 -9 11 7 5 18 -7 19 -6 5 11 -11 14
-12 19 -2 22 6 3 9 10 5 16 -3 6 -6 29 -5 51 1 23 2 83 3 133 1 67 4 91 13 86
8 -5 7 -2 -1 8 -15 19 -15 99 1 99 7 0 7 3 1 8 -14 10 -18 49 -5 57 8 5 8 11
-1 21 -9 11 -8 18 2 31 8 9 9 14 3 10 -8 -5 -11 6 -10 33 0 22 6 40 11 40 6 0
3 5 -5 10 -13 9 -13 11 0 20 10 6 11 10 3 10 -15 0 -13 21 2 32 6 5 5 8 -4 8
-11 0 -11 3 -1 15 10 12 10 15 -1 15 -11 0 -11 2 1 10 13 9 13 10 0 10 -13 0
-13 1 0 10 13 9 13 10 0 10 -13 0 -13 1 0 10 13 9 13 10 0 10 -13 0 -13 1 0
10 13 9 13 10 0 10 -12 0 -12 2 -1 9 9 6 10 10 2 16 -9 5 -9 10 0 21 6 8 7 14
2 14 -5 0 -10 7 -10 15 0 8 4 12 9 9 13 -8 10 10 -4 25 -10 11 -10 13 0 7 15
-9 16 10 2 19 -8 5 -7 11 1 21 9 11 8 14 -2 14 -11 0 -11 2 1 10 13 9 13 11 0
20 -8 5 -10 10 -4 10 6 0 12 11 12 25 0 13 -5 22 -10 19 -6 -4 -5 4 2 16 10
18 9 24 -1 31 -12 7 -12 9 0 9 11 0 11 3 0 17 -8 9 -9 14 -3 10 7 -4 12 2 12
18 0 16 -5 22 -12 18 -6 -4 -5 0 2 9 8 11 13 40 12 80 -1 35 -1 68 0 73 1 6 1
67 1 138 0 93 3 127 12 127 8 0 8 3 2 8 -16 11 -18 65 -2 56 9 -6 9 -4 1 7
-12 17 -12 48 0 68 6 10 5 12 -2 7 -7 -4 -12 -1 -12 9 0 9 4 14 9 11 11 -7 9
13 -3 32 -4 7 -3 19 4 26 8 11 8 15 -2 19 -9 4 -10 8 -3 14 20 15 10 44 -12
36z m-2162 -2082 c6 10 9 11 9 2 0 -7 5 -13 11 -13 5 0 7 5 3 12 -5 7 -3 8 7
2 8 -5 25 -10 39 -12 13 -2 30 -8 37 -14 8 -6 16 -8 20 -4 3 3 0 6 -7 6 -7 0
-10 3 -7 6 4 4 13 1 21 -5 8 -7 25 -13 38 -15 13 -1 33 -8 45 -14 12 -7 29
-12 37 -12 9 0 16 -5 16 -11 0 -5 4 -8 9 -5 15 9 42 -5 34 -18 -4 -6 1 -5 10
3 12 9 17 10 17 2 0 -7 4 -10 9 -6 5 3 12 1 16 -5 4 -6 10 -8 15 -5 5 3 14 -1
22 -8 7 -8 21 -13 31 -11 9 1 17 -2 17 -7 0 -6 5 -7 10 -4 6 3 10 1 10 -5 0
-6 4 -9 9 -5 5 3 12 1 16 -4 3 -6 12 -8 20 -4 8 3 15 0 15 -6 0 -6 7 -11 15
-11 14 0 37 -32 41 -57 1 -7 -7 -13 -19 -14 -14 0 -17 -3 -8 -6 9 -4 0 -12
-25 -23 -21 -10 -44 -15 -53 -12 -9 3 -12 1 -7 -6 7 -11 3 -14 -26 -16 -7 -1
-17 -6 -23 -13 -5 -7 -17 -13 -25 -15 -8 -2 -21 -9 -28 -16 -8 -7 -18 -10 -23
-7 -5 4 -9 1 -9 -4 0 -6 -3 -10 -7 -10 -26 4 -43 -2 -37 -13 5 -8 0 -7 -11 2
-11 9 -16 10 -11 3 4 -7 4 -13 -1 -14 -4 0 -22 -2 -38 -3 -17 -1 -36 -6 -43
-10 -7 -4 -12 -3 -12 2 0 5 -7 9 -15 9 -8 0 -15 -4 -15 -8 0 -4 -13 -1 -30 7
-16 9 -30 20 -30 25 0 6 -4 7 -10 4 -5 -3 -10 1 -10 10 0 9 -4 13 -10 10 -5
-3 -10 2 -10 11 0 10 -3 15 -6 11 -7 -7 -42 26 -37 36 2 4 -2 7 -10 7 -8 0
-18 7 -21 16 -3 8 -11 12 -17 8 -7 -4 -9 -3 -6 3 4 6 0 13 -8 17 -8 3 -15 15
-15 26 0 13 -4 18 -11 14 -14 -8 -10 86 5 105 8 11 8 13 0 8 -7 -4 -5 8 4 28
9 19 19 32 22 30 4 -2 13 5 21 16 8 12 15 15 18 8 2 -8 6 -7 12 2z m1659 -1
c-8 -5 -10 -10 -4 -10 5 0 15 5 22 12 9 9 12 9 12 0 0 -7 7 -12 15 -12 8 0 15
-6 15 -12 0 -10 2 -10 8 -1 5 8 11 3 19 -13 8 -18 8 -22 0 -17 -7 3 -4 -3 7
-15 20 -23 30 -106 12 -95 -6 4 -4 -2 4 -12 9 -11 10 -16 3 -11 -9 5 -13 -1
-13 -21 0 -22 -2 -25 -10 -13 -8 13 -10 12 -10 -2 0 -10 -5 -18 -11 -18 -5 0
-7 -4 -4 -10 3 -5 0 -10 -7 -10 -15 0 -48 -35 -48 -51 0 -5 -4 -8 -8 -5 -5 3
-23 -11 -41 -31 -30 -34 -90 -75 -76 -53 9 14 -9 12 -23 -2 -9 -9 -12 -9 -12
3 0 12 -2 12 -10 -1 -5 -8 -10 -10 -10 -5 0 6 -9 11 -20 12 -11 1 -18 -3 -14
-8 3 -5 -11 0 -30 11 -24 13 -36 16 -36 7 0 -8 -2 -9 -8 -1 -4 6 -24 17 -44
24 -20 8 -35 16 -33 20 2 3 -6 7 -17 7 -12 1 -25 7 -29 14 -4 7 -14 9 -23 6
-9 -4 -15 -2 -13 5 1 6 -15 17 -37 23 -21 6 -45 20 -52 30 -8 10 -14 15 -14
11 0 -4 -8 0 -17 10 -13 13 -14 19 -5 22 6 2 12 10 12 18 0 9 5 12 10 9 6 -3
10 -1 10 4 0 6 7 11 16 11 9 0 12 5 8 12 -5 8 -2 9 9 5 10 -4 17 -1 17 6 0 8
4 6 10 -3 6 -10 10 -11 10 -2 0 6 7 12 15 12 8 0 15 5 15 10 0 6 14 10 31 10
20 0 28 4 23 12 -4 7 -3 8 5 4 6 -4 23 0 38 9 14 9 22 12 19 6 -5 -8 0 -8 18
0 14 7 24 15 22 18 -2 3 6 7 17 7 27 2 49 8 62 15 6 4 18 5 28 3 12 -1 17 2
13 11 -3 10 0 12 11 8 12 -5 14 -2 9 8 -4 8 0 5 8 -5 10 -12 16 -15 16 -7 0 8
6 11 16 7 8 -3 12 -2 9 4 -4 6 8 10 29 10 19 0 38 5 41 10 3 6 12 10 18 10 7
0 6 -4 -3 -10z m-240 -1874 c0 -2 -8 -10 -17 -17 -16 -13 -17 -12 -4 4 13 16
21 21 21 13z"/>
</g>
</svg>
